<mxfile host="app.diagrams.net" modified="2021-03-15T08:55:04.336Z" agent="5.0 (Windows NT 10.0; Win64; x64) AppleWebKit/537.36 (KHTML, like Gecko) Chrome/89.0.4389.82 Safari/537.36" etag="eKe08G2OYS6UFyf_YJ3u" version="14.4.8" type="github">
  <diagram id="uGe7ZHIYlFBGRhhSy0LT" name="第 1 页">
    <mxGraphModel dx="1185" dy="667" grid="1" gridSize="10" guides="1" tooltips="1" connect="1" arrows="1" fold="1" page="1" pageScale="1" pageWidth="827" pageHeight="1169" math="0" shadow="0">
      <root>
        <mxCell id="0" />
        <mxCell id="1" parent="0" />
        <mxCell id="7S_qbHoeymjwng5Tj9s8-1" value="" style="rounded=0;whiteSpace=wrap;html=1;strokeWidth=1;fontSize=7;" vertex="1" parent="1">
          <mxGeometry x="329" y="270" width="311" height="361" as="geometry" />
        </mxCell>
        <mxCell id="7S_qbHoeymjwng5Tj9s8-2" value="&lt;font face=&quot;helvetica&quot;&gt;Concat + Conv x 3&lt;/font&gt;" style="rounded=0;whiteSpace=wrap;html=1;strokeWidth=1;fontSize=7;" vertex="1" parent="1">
          <mxGeometry x="493" y="585" width="125" height="28" as="geometry" />
        </mxCell>
        <mxCell id="7S_qbHoeymjwng5Tj9s8-3" value="" style="endArrow=classic;html=1;fontSize=7;entryX=0;entryY=0.5;entryDx=0;entryDy=0;exitX=1;exitY=0.5;exitDx=0;exitDy=0;" edge="1" parent="1" source="7S_qbHoeymjwng5Tj9s8-7" target="7S_qbHoeymjwng5Tj9s8-44">
          <mxGeometry width="50" height="50" relative="1" as="geometry">
            <mxPoint x="499" y="330" as="sourcePoint" />
            <mxPoint x="594" y="328.9999999999999" as="targetPoint" />
          </mxGeometry>
        </mxCell>
        <mxCell id="7S_qbHoeymjwng5Tj9s8-4" value="&lt;font style=&quot;font-size: 17px&quot;&gt;PANet&lt;/font&gt;" style="text;html=1;resizable=0;autosize=1;align=center;verticalAlign=middle;points=[];fillColor=none;strokeColor=none;rounded=0;fontSize=7;" vertex="1" parent="1">
          <mxGeometry x="329" y="284" width="58" height="14" as="geometry" />
        </mxCell>
        <mxCell id="7S_qbHoeymjwng5Tj9s8-5" value="" style="endArrow=classic;html=1;fontSize=7;entryX=0.5;entryY=1;entryDx=0;entryDy=0;" edge="1" parent="1" target="7S_qbHoeymjwng5Tj9s8-46">
          <mxGeometry width="50" height="50" relative="1" as="geometry">
            <mxPoint x="432" y="598" as="sourcePoint" />
            <mxPoint x="406.27200000000016" y="372.39199999999994" as="targetPoint" />
          </mxGeometry>
        </mxCell>
        <mxCell id="7S_qbHoeymjwng5Tj9s8-6" value="&lt;span style=&quot;color: rgb(0 , 0 , 0) ; font-family: &amp;#34;helvetica&amp;#34; ; font-style: normal ; font-weight: 400 ; letter-spacing: normal ; text-align: center ; text-indent: 0px ; text-transform: none ; word-spacing: 0px ; background-color: rgb(248 , 249 , 250) ; display: inline ; float: none ; font-size: 7px&quot;&gt;&lt;font style=&quot;font-size: 7px&quot;&gt;Upsampling(scale_factor=2)&lt;/font&gt;&lt;/span&gt;" style="rounded=0;whiteSpace=wrap;html=1;strokeWidth=1;fontSize=7;" vertex="1" parent="1">
          <mxGeometry x="351.5" y="410" width="160" height="28" as="geometry" />
        </mxCell>
        <mxCell id="7S_qbHoeymjwng5Tj9s8-7" value="&lt;span style=&quot;color: rgb(0 , 0 , 0) ; font-family: &amp;#34;helvetica&amp;#34; ; font-style: normal ; font-weight: 400 ; letter-spacing: normal ; text-align: center ; text-indent: 0px ; text-transform: none ; word-spacing: 0px ; background-color: rgb(248 , 249 , 250) ; display: inline ; float: none ; font-size: 7px&quot;&gt;&lt;font style=&quot;font-size: 7px&quot;&gt;Conv_1×1 + Concat + Conv x 3&lt;/font&gt;&lt;/span&gt;" style="rounded=0;whiteSpace=wrap;html=1;strokeWidth=1;fontSize=7;" vertex="1" parent="1">
          <mxGeometry x="343" y="316" width="177" height="28" as="geometry" />
        </mxCell>
        <mxCell id="7S_qbHoeymjwng5Tj9s8-8" value="&lt;span style=&quot;color: rgb(0 , 0 , 0) ; font-family: &amp;#34;helvetica&amp;#34; ; font-style: normal ; font-weight: 400 ; letter-spacing: normal ; text-align: center ; text-indent: 0px ; text-transform: none ; word-spacing: 0px ; background-color: rgb(248 , 249 , 250) ; display: inline ; float: none ; font-size: 7px&quot;&gt;&lt;font style=&quot;font-size: 7px&quot;&gt;DownSampling(256,19,19)&lt;/font&gt;&lt;/span&gt;" style="rounded=0;whiteSpace=wrap;html=1;strokeWidth=1;fontSize=7;" vertex="1" parent="1">
          <mxGeometry x="480" y="450" width="150" height="28" as="geometry" />
        </mxCell>
        <mxCell id="7S_qbHoeymjwng5Tj9s8-9" value="" style="endArrow=classic;html=1;entryX=0.5;entryY=0;entryDx=0;entryDy=0;" edge="1" parent="1" target="7S_qbHoeymjwng5Tj9s8-8">
          <mxGeometry width="50" height="50" relative="1" as="geometry">
            <mxPoint x="555" y="330" as="sourcePoint" />
            <mxPoint x="503" y="470" as="targetPoint" />
          </mxGeometry>
        </mxCell>
        <mxCell id="7S_qbHoeymjwng5Tj9s8-10" value="" style="endArrow=classic;html=1;" edge="1" parent="1">
          <mxGeometry width="50" height="50" relative="1" as="geometry">
            <mxPoint x="618" y="598.66" as="sourcePoint" />
            <mxPoint x="660" y="599" as="targetPoint" />
          </mxGeometry>
        </mxCell>
        <mxCell id="7S_qbHoeymjwng5Tj9s8-13" value="" style="endArrow=classic;html=1;fontSize=14;entryX=0.5;entryY=1;entryDx=0;entryDy=0;exitX=0.5;exitY=0;exitDx=0;exitDy=0;" edge="1" parent="1" source="7S_qbHoeymjwng5Tj9s8-6" target="7S_qbHoeymjwng5Tj9s8-7">
          <mxGeometry width="50" height="50" relative="1" as="geometry">
            <mxPoint x="405.26" y="414" as="sourcePoint" />
            <mxPoint x="405.26" y="350" as="targetPoint" />
          </mxGeometry>
        </mxCell>
        <mxCell id="7S_qbHoeymjwng5Tj9s8-14" value="" style="endArrow=classic;html=1;fontSize=14;exitX=0.5;exitY=1;exitDx=0;exitDy=0;" edge="1" parent="1" source="7S_qbHoeymjwng5Tj9s8-8">
          <mxGeometry width="50" height="50" relative="1" as="geometry">
            <mxPoint x="555.1600000000002" y="509" as="sourcePoint" />
            <mxPoint x="555.1600000000002" y="585" as="targetPoint" />
          </mxGeometry>
        </mxCell>
        <mxCell id="7S_qbHoeymjwng5Tj9s8-16" value="(128,38,38)" style="text;html=1;resizable=0;autosize=1;align=center;verticalAlign=middle;points=[];fillColor=none;strokeColor=none;rounded=0;" vertex="1" parent="1">
          <mxGeometry x="351.5" y="370" width="80" height="20" as="geometry" />
        </mxCell>
        <mxCell id="7S_qbHoeymjwng5Tj9s8-17" value="(128,38,38)" style="text;html=1;resizable=0;autosize=1;align=center;verticalAlign=middle;points=[];fillColor=none;strokeColor=none;rounded=0;" vertex="1" parent="1">
          <mxGeometry x="550" y="380" width="80" height="20" as="geometry" />
        </mxCell>
        <mxCell id="7S_qbHoeymjwng5Tj9s8-38" value="" style="endArrow=classic;html=1;entryX=0;entryY=0.5;entryDx=0;entryDy=0;exitX=1;exitY=0.5;exitDx=0;exitDy=0;" edge="1" parent="1" target="7S_qbHoeymjwng5Tj9s8-2">
          <mxGeometry width="50" height="50" relative="1" as="geometry">
            <mxPoint x="285" y="597" as="sourcePoint" />
            <mxPoint x="329" y="600" as="targetPoint" />
          </mxGeometry>
        </mxCell>
        <mxCell id="7S_qbHoeymjwng5Tj9s8-42" value="&lt;span style=&quot;font-family: &amp;#34;times new roman&amp;#34; ; font-size: 16px&quot;&gt;X1(256,38,38)&lt;/span&gt;" style="rounded=0;whiteSpace=wrap;html=1;strokeWidth=1;fontSize=7;" vertex="1" parent="1">
          <mxGeometry x="172" y="316" width="123" height="28" as="geometry" />
        </mxCell>
        <mxCell id="7S_qbHoeymjwng5Tj9s8-43" value="&lt;span style=&quot;font-family: &amp;#34;times new roman&amp;#34; ; font-size: 16px&quot;&gt;X1(256,19,19)&lt;/span&gt;" style="rounded=0;whiteSpace=wrap;html=1;strokeWidth=1;fontSize=7;" vertex="1" parent="1">
          <mxGeometry x="172" y="580" width="123" height="28" as="geometry" />
        </mxCell>
        <mxCell id="7S_qbHoeymjwng5Tj9s8-44" value="&lt;span style=&quot;font-family: &amp;#34;times new roman&amp;#34; ; font-size: 16px&quot;&gt;Y1(128,38,38)&lt;/span&gt;" style="rounded=0;whiteSpace=wrap;html=1;strokeWidth=1;fontSize=7;" vertex="1" parent="1">
          <mxGeometry x="660" y="316" width="123" height="28" as="geometry" />
        </mxCell>
        <mxCell id="7S_qbHoeymjwng5Tj9s8-45" value="" style="endArrow=classic;html=1;exitX=1;exitY=0.5;exitDx=0;exitDy=0;" edge="1" parent="1" source="7S_qbHoeymjwng5Tj9s8-42" target="7S_qbHoeymjwng5Tj9s8-7">
          <mxGeometry width="50" height="50" relative="1" as="geometry">
            <mxPoint x="302" y="329.71" as="sourcePoint" />
            <mxPoint x="342" y="329.71" as="targetPoint" />
          </mxGeometry>
        </mxCell>
        <mxCell id="7S_qbHoeymjwng5Tj9s8-46" value="&lt;span style=&quot;color: rgb(0 , 0 , 0) ; font-family: &amp;#34;helvetica&amp;#34; ; font-style: normal ; font-weight: 400 ; letter-spacing: normal ; text-align: center ; text-indent: 0px ; text-transform: none ; word-spacing: 0px ; background-color: rgb(248 , 249 , 250) ; display: inline ; float: none ; font-size: 7px&quot;&gt;&lt;font style=&quot;font-size: 7px&quot;&gt;Conv_1×1(128,19,19)&lt;/font&gt;&lt;/span&gt;" style="rounded=0;whiteSpace=wrap;html=1;strokeWidth=1;fontSize=7;" vertex="1" parent="1">
          <mxGeometry x="351.5" y="485" width="160" height="28" as="geometry" />
        </mxCell>
        <mxCell id="7S_qbHoeymjwng5Tj9s8-47" value="" style="endArrow=classic;html=1;exitX=0.5;exitY=0;exitDx=0;exitDy=0;" edge="1" parent="1" source="7S_qbHoeymjwng5Tj9s8-46">
          <mxGeometry width="50" height="50" relative="1" as="geometry">
            <mxPoint x="431" y="480" as="sourcePoint" />
            <mxPoint x="431.15999999999997" y="438" as="targetPoint" />
          </mxGeometry>
        </mxCell>
        <mxCell id="7S_qbHoeymjwng5Tj9s8-48" value="&lt;span style=&quot;font-family: &amp;#34;times new roman&amp;#34; ; font-size: 16px&quot;&gt;Y2(256,19,19)&lt;/span&gt;" style="rounded=0;whiteSpace=wrap;html=1;strokeWidth=1;fontSize=7;" vertex="1" parent="1">
          <mxGeometry x="660" y="585" width="123" height="28" as="geometry" />
        </mxCell>
      </root>
    </mxGraphModel>
  </diagram>
</mxfile>
